# xmcd
#
# Track frame offsets: 
#        150
#        9855
#        23067
#        35352
#        45637
#        56317
#        70095
#        80180
#        93217
#        119295
#        135340
#        149422
#        164127
#        178662
#        190925
#        206187
#        216892
#        225747
#
# Disc length: 3141 seconds
#
# Revision: 3
# Processed by: cddbd v1.5.2PL0 Copyright (c) Steve Scherf et al.
# Submitted via: ExactAudioCopy v0.99pb5
#
DISCID=f90c4312
DTITLE=Various Artist - Country Girls [Castle]
DYEAR=1993
DGENRE=Country
TTITLE0=Donna Fargo - Sticks and stones
TTITLE1=Lynn Anderson - Rose garden
TTITLE2=Sandy Posey - Single girl
TTITLE3=Patsy Cline - Pick me up on your way down
TTITLE4=Patsy Cline - Honky tonk merry go round
TTITLE5=Barbara Fairchild - Crazy love
TTITLE6=Loretta Lynn - Out of my head, back in bed
TTITLE7=Loretta Lynn - Let your love flow
TTITLE8=Brenda Lee - Medley (6 songs)
TTITLE9=Brenda Lee - Comin' on strong
TTITLE10=Kitty Wells - Makin' believe
TTITLE11=Jeannie C Riley - Harper valley PTA
TTITLE12=Loretta Lynn - Coalminer's daughter
TTITLE13=Billie Jo Spears - Misty blue
TTITLE14=Billie Jo Spears - Blanket on the ground
TTITLE15=Donna Fargo - All that's keeping me alive
TTITLE16=Sandy Posey - Born a woman
TTITLE17=Barbara Mandrell - Kaw-Liga
EXTD=
EXTT0=
EXTT1=
EXTT2=
EXTT3=
EXTT4=
EXTT5=
EXTT6=
EXTT7=
EXTT8=
EXTT9=
EXTT10=
EXTT11=
EXTT12=
EXTT13=
EXTT14=
EXTT15=
EXTT16=
EXTT17=
PLAYORDER=
